HIERARCHY
ROOT SimulationBone
{
	OFFSET 0.000000 0.000000 0.000000
	CHANNELS 6 Xposition Yposition Zposition Zrotation Yrotation Xrotation 
	JOINT Hips
	{
		OFFSET 0.000000 0.000000 0.000000
		CHANNELS 6 Xposition Yposition Zposition Zrotation Yrotation Xrotation 
		JOINT RightUpLeg
		{
			OFFSET 0.103458 1.857831 10.548505
			CHANNELS 3 Zrotation Yrotation Xrotation
			JOINT RightLeg
			{
				OFFSET 43.500000 -0.000031 0.000002
				CHANNELS 3 Zrotation Yrotation Xrotation
				JOINT RightFoot
				{
					OFFSET 42.372200 0.000023 0.000003
					CHANNELS 3 Zrotation Yrotation Xrotation
					JOINT RightToe
					{
						OFFSET 17.299997 -0.000001 -0.000010
						CHANNELS 3 Zrotation Yrotation Xrotation
						End Site
						{
							OFFSET 0.000000 0.000000 0.000000
						}
					}
				}
			}
		}
		JOINT LeftUpLeg
		{
			OFFSET 0.103457 1.857828 -10.548510
			CHANNELS 3 Zrotation Yrotation Xrotation
			JOINT LeftLeg
			{
				OFFSET 43.500046 -0.000015 0.000002
				CHANNELS 3 Zrotation Yrotation Xrotation
				JOINT LeftFoot
				{
					OFFSET 42.372261 -0.000008 0.000023
					CHANNELS 3 Zrotation Yrotation Xrotation
					JOINT LeftToe
					{
						OFFSET 17.299990 -0.000007 -0.000002
						CHANNELS 3 Zrotation Yrotation Xrotation
						End Site
						{
							OFFSET 0.000000 0.000000 0.000000
						}
					}
				}
			}
		}
		JOINT Spine
		{
			OFFSET 6.901967 -2.603726 -0.000001
			CHANNELS 3 Zrotation Yrotation Xrotation
			JOINT Spine1
			{
				OFFSET 12.588100 -0.000009 -0.000003
				CHANNELS 3 Zrotation Yrotation Xrotation
				JOINT Spine2
				{
					OFFSET 12.343202 0.000008 0.000008
					CHANNELS 3 Zrotation Yrotation Xrotation
					JOINT Neck
					{
						OFFSET 25.832897 -0.000015 -0.000004
						CHANNELS 3 Zrotation Yrotation Xrotation
						JOINT Head
						{
							OFFSET 11.766609 0.000013 -0.000006
							CHANNELS 3 Zrotation Yrotation Xrotation
							End Site
							{
								OFFSET 0.000000 0.000000 0.000000
							}
						}
					}
					JOINT RightShoulder
					{
						OFFSET 19.745911 -1.480373 6.000098
						CHANNELS 3 Zrotation Yrotation Xrotation
						JOINT RightArm
						{
							OFFSET 11.284123 -0.000007 -0.000032
							CHANNELS 3 Zrotation Yrotation Xrotation
							JOINT RightForeArm
							{
								OFFSET 33.000050 0.000005 0.000031
								CHANNELS 3 Zrotation Yrotation Xrotation
								JOINT RightHand
								{
									OFFSET 25.200008 0.000017 0.000013
									CHANNELS 3 Zrotation Yrotation Xrotation
									End Site
									{
										OFFSET 0.000000 0.000000 0.000000
									}
								}
							}
						}
					}
					JOINT LeftShoulder
					{
						OFFSET 19.746092 -1.480379 -6.000077
						CHANNELS 3 Zrotation Yrotation Xrotation
						JOINT LeftArm
						{
							OFFSET 11.284136 -0.000017 -0.000017
							CHANNELS 3 Zrotation Yrotation Xrotation
							JOINT LeftForeArm
							{
								OFFSET 33.000099 0.000019 0.000015
								CHANNELS 3 Zrotation Yrotation Xrotation
								JOINT LeftHand
								{
									OFFSET 25.199780 0.000140 0.000408
									CHANNELS 3 Zrotation Yrotation Xrotation
									End Site
									{
										OFFSET 0.000000 0.000000 0.000000
									}
								}
							}
						}
					}
				}
			}
		}
	}
}
MOTION
Frames: 15
Frame Time: 0.016667
300.821929 0.000000 351.722063 0.000000 -75.324314 0.000000 -1.938588 86.037643 0.273397 92.458370 1.028284 178.507456 -170.917752 -1.247095 178.277623 -35.569155 -3.559324 -1.132528 87.489654 0.941211 0.126727 21.454557 0.003114 0.000018 149.888842 0.528602 -171.038524 -34.385377 0.491679 7.034325 68.575747 -5.348315 -0.661198 21.454553 -0.003084 0.000001 9.240194 0.407199 -1.454888 8.456256 0.919570 -2.876192 8.138563 0.902048 -2.881687 11.242572 0.627435 2.264439 -4.456697 -0.296412 2.457294 -168.454088 -73.466364 -13.254245 -25.395887 56.011125 -2.181266 -83.743330 -8.735721 2.680043 -3.619749 -6.335671 18.423013 -164.347820 76.577617 17.484180 12.909629 -52.725397 -63.270363 -27.821764 10.404412 -0.893082 15.256974 -12.162964 -44.833613 
300.861607 0.000000 353.141571 0.000000 -76.201909 0.000000 -1.789131 85.901074 0.280266 92.616110 1.807833 179.237491 -172.725854 -2.248331 176.320298 -40.833131 -2.191809 -0.303227 84.249339 0.122253 -0.878083 21.454562 0.003122 0.000022 150.335956 0.155057 -170.428212 -35.867011 1.339252 6.792972 69.727805 -5.614552 -2.005797 21.454551 -0.003094 -0.000002 9.189460 0.686393 -1.347406 8.349841 1.468146 -2.641992 8.032003 1.452028 -2.650802 12.120126 0.712207 2.200635 -4.670623 -0.564870 2.463458 -168.302604 -73.456462 -13.409743 -23.357481 56.882068 0.797003 -80.583986 -10.730640 2.625886 -2.321988 -6.275149 19.787002 -165.544470 76.117809 16.264969 10.551150 -53.113963 -59.879288 -27.895841 10.753368 -0.917157 14.456088 -10.481750 -45.676851 
300.912448 0.000000 354.575017 0.000000 -77.050970 0.000000 -1.548020 85.918137 0.257723 92.777937 2.108603 179.876928 -175.134001 -2.853691 175.283459 -47.110389 -1.272733 -0.131142 80.678856 -0.436307 -2.388033 21.454562 0.003119 0.000021 151.006315 0.044695 -169.784337 -37.099251 1.653960 6.407525 71.172838 -5.526385 -2.713624 21.454551 -0.003099 -0.000002 9.102266 0.868634 -1.238447 8.173506 1.822481 -2.412776 7.855550 1.807743 -2.423735 13.088453 0.652304 2.115363 -4.745083 -0.662399 2.394314 -168.042501 -73.329747 -13.676888 -22.030076 57.555980 4.424880 -76.065118 -13.372107 2.669951 -0.959185 -6.457979 20.326032 -166.184690 75.787678 15.612386 7.920687 -53.627358 -56.862706 -27.970616 11.078576 -0.939490 13.261424 -8.157806 -45.479995 
300.974442 0.000000 356.023071 0.000000 -77.871598 0.000000 -1.269406 86.042131 0.222529 92.978097 2.164833 -179.598260 -177.911138 -3.237619 174.828752 -53.841826 -0.661174 -0.401634 77.220476 -0.818817 -4.078740 21.454559 0.003111 0.000018 151.927721 -0.035662 -169.345087 -38.002703 1.692502 6.048196 72.715762 -5.286060 -2.964478 21.454552 -0.003100 -0.000001 9.011737 0.992857 -1.115444 7.992454 2.060282 -2.160051 7.674396 2.047068 -2.172458 14.031368 0.505519 1.989204 -4.711701 -0.675242 2.257262 -167.864499 -73.155614 -13.859947 -21.319031 58.077469 8.193950 -70.455197 -16.127403 2.651798 0.383707 -6.775473 20.067159 -166.493620 75.533119 15.297687 4.911567 -54.219946 -53.842447 -28.026328 11.377000 -0.959776 11.820848 -5.520085 -44.462190 
301.047581 0.000000 357.486398 0.000000 -78.663958 0.000000 -1.006301 86.226357 0.194673 93.263992 2.208917 -179.210544 179.192212 -3.585400 174.625561 -60.443669 -0.186684 -0.919147 74.318461 -1.044110 -5.623630 21.454560 0.003105 0.000016 153.125218 -0.310199 -169.354704 -38.500058 1.717818 5.871686 74.168695 -5.092246 -2.948457 21.454553 -0.003096 0.000000 8.951189 1.097896 -0.965738 7.872742 2.258856 -1.854988 7.554574 2.247479 -1.868604 14.832654 0.329712 1.805079 -4.602123 -0.689362 2.060349 -167.949105 -73.004022 -13.773393 -21.132603 58.494305 11.596145 -64.032018 -18.453692 2.524349 1.627340 -7.120838 19.041932 -166.659115 75.296903 15.129406 1.415557 -54.819363 -50.439808 -28.043171 11.645617 -0.977509 10.267338 -2.896768 -42.815494 
301.131859 0.000000 358.965668 0.000000 -79.428268 0.000000 -0.797918 86.438543 0.189351 93.667181 2.397236 -178.976144 176.369462 -4.035157 174.410952 -66.423070 0.301345 -1.534448 72.424582 -1.046891 -6.647181 21.454564 0.003106 0.000016 154.607002 -0.901281 -169.953832 -38.544246 1.916771 5.958447 75.381272 -5.075128 -2.846117 21.454553 -0.003089 -0.000000 8.944571 1.208541 -0.785145 7.862094 2.467559 -1.486805 7.543798 2.458396 -1.501689 15.402603 0.184723 1.574589 -4.466298 -0.762641 1.832229 -168.362451 -72.911772 -13.349082 -21.354964 58.829473 14.245503 -57.102125 -19.905388 2.353557 2.767695 -7.364584 17.365350 -166.903372 75.033523 14.880439 -2.664941 -55.330417 -46.372408 -28.009834 11.887678 -0.992606 8.783898 -0.569514 -40.676330 
301.227266 0.000000 360.461547 0.000000 -80.164798 0.000000 -0.632496 86.704132 0.192241 94.117226 2.588516 -178.894074 173.564710 -4.451994 174.135372 -71.642031 0.722299 -2.151552 72.026973 -0.625528 -6.578620 21.454567 0.003111 0.000016 156.298825 -1.578399 -170.828509 -38.201015 2.166163 6.110191 76.351023 -5.122235 -2.760047 21.454553 -0.003084 -0.000000 8.977534 1.293952 -0.603463 7.931484 2.626172 -1.117201 7.613086 2.619230 -1.133047 15.757475 0.139160 1.415494 -4.429159 -0.841377 1.684576 -168.735110 -72.786405 -12.966457 -21.782534 59.026056 16.224072 -49.985936 -20.397865 2.140388 4.096776 -7.263723 15.473136 -167.638987 74.747134 14.128129 -7.392864 -55.677535 -41.728886 -27.949116 12.131511 -1.007268 7.864095 1.370561 -38.058271 
301.333795 0.000000 361.974704 0.000000 -80.873864 0.000000 -0.488741 87.051758 0.182873 94.529195 2.605466 -178.951190 170.695554 -4.674426 173.804944 -76.037316 0.986513 -2.702433 73.283019 0.277722 -5.156941 21.454562 0.003115 0.000014 158.107148 -2.083620 -171.628338 -37.563389 2.314919 6.115774 77.122489 -5.093863 -2.743756 21.454552 -0.003085 0.000001 9.025349 1.318531 -0.452673 8.030537 2.665263 -0.813064 7.712102 2.660151 -0.829150 15.958748 0.225882 1.428579 -4.577256 -0.874810 1.711015 -168.728925 -72.551399 -12.972973 -22.173080 59.064248 17.706161 -42.994869 -19.976124 1.889423 5.779266 -6.663280 13.724537 -169.144690 74.474714 12.586137 -12.728837 -55.826434 -36.702105 -27.883152 12.388888 -1.022740 7.837946 2.854954 -34.986556 
301.451437 0.000000 363.505807 0.000000 -81.555818 0.000000 -0.354600 87.465103 0.150108 94.884266 2.414214 -179.091936 167.825070 -4.710801 173.491900 -79.554484 1.163378 -3.274369 74.890141 1.200657 -3.659502 21.454558 0.003117 0.000012 159.989176 -2.330300 -172.362706 -36.713389 2.408735 5.992813 77.780568 -4.988091 -2.755618 21.454551 -0.003089 0.000002 9.061321 1.282804 -0.339076 8.105198 2.586181 -0.587712 7.786774 2.582433 -0.603326 16.144438 0.329376 1.541263 -4.765985 -0.933147 1.848177 -168.556131 -72.312151 -13.150757 -22.228003 59.181340 18.760719 -36.352407 -18.916219 1.647187 7.241382 -5.888885 11.796338 -171.104284 74.358012 10.578107 -18.370172 -55.885504 -31.422472 -27.797006 12.580303 -1.033547 8.079323 3.904715 -31.752486 
301.580186 0.000000 365.055522 0.000000 -82.211047 0.000000 -0.225209 87.913360 0.091906 95.176142 2.046074 -179.262336 165.027171 -4.630750 173.258963 -82.151534 1.327932 -3.967431 75.531426 1.814460 -3.306616 21.454559 0.003117 0.000013 161.907442 -2.312632 -173.103603 -35.722327 2.521619 5.809932 78.400371 -4.838618 -2.749165 21.454550 -0.003092 0.000000 9.065029 1.200892 -0.258964 8.114438 2.416958 -0.433269 7.796040 2.414159 -0.447871 16.412284 0.333079 1.660588 -4.828215 -1.082697 2.010697 -168.469048 -72.181950 -13.240407 -21.654371 59.586473 19.449594 -30.307090 -17.542235 1.418721 8.033343 -5.164949 9.511749 -173.208772 74.518604 8.422751 -24.078043 -55.959987 -25.928447 -27.707149 12.636349 -1.035518 7.980274 4.611742 -28.739625 
301.720033 0.000000 366.624518 0.000000 -82.839965 0.000000 -0.114112 88.352730 0.034479 95.378702 1.653931 -179.459385 162.273779 -4.611810 173.053785 -83.825551 1.475492 -4.725612 75.530765 2.348883 -3.318666 21.454562 0.003113 0.000015 163.789671 -2.203798 -173.824257 -34.632357 2.646836 5.605641 78.977087 -4.678128 -2.749122 21.454550 -0.003094 -0.000002 9.042585 1.104934 -0.194502 8.070822 2.220717 -0.311611 7.752455 2.218668 -0.325036 16.624086 0.263164 1.787012 -4.737211 -1.250807 2.181396 -168.391292 -72.124260 -13.320409 -20.300523 60.125989 19.859845 -25.391878 -16.156773 1.247452 8.868848 -3.759328 8.110485 -175.394204 74.859894 6.187590 -29.805951 -55.900923 -20.280104 -27.792903 12.619335 -1.036002 7.989154 4.964844 -26.301357 
301.870971 0.000000 368.213463 0.000000 -83.443012 0.000000 -0.033811 88.745276 0.004353 95.472759 1.387137 -179.688705 159.536917 -4.831078 172.837823 -84.599066 1.593685 -5.449825 75.495141 3.014700 -2.794372 21.454558 0.003104 0.000018 165.580182 -2.186503 -174.506298 -33.469002 2.764375 5.410400 79.490151 -4.534794 -2.783378 21.454551 -0.003097 -0.000001 9.003846 1.025608 -0.126601 7.994488 2.057505 -0.182159 7.676156 2.056238 -0.194597 16.658338 0.176116 1.937858 -4.537707 -1.350941 2.358319 -168.213284 -72.066355 -13.503530 -18.044146 60.584694 20.238204 -22.106482 -15.044154 1.131661 10.488199 -1.053132 8.866312 -177.584361 75.243299 3.950810 -35.423452 -55.525949 -14.735238 -28.216582 12.618395 -1.043440 8.564200 4.940320 -24.638114 
302.032990 0.000000 369.823024 0.000000 -84.020646 0.000000 0.021525 89.089508 -0.001274 95.478281 1.257946 -179.945265 156.890292 -5.327897 172.690555 -84.565391 1.686603 -6.034478 75.409768 3.536460 -2.431152 21.454553 0.003099 0.000019 167.307328 -2.285300 -175.221482 -32.221048 2.884149 5.256477 79.936517 -4.422906 -2.819402 21.454553 -0.003094 0.000000 8.947074 0.969883 -0.045180 7.882206 1.940608 -0.024277 7.563905 1.940288 -0.036006 16.695424 0.104756 2.101549 -4.421754 -1.380004 2.532642 -168.000591 -71.941805 -13.722507 -14.701877 60.835072 21.478171 -20.563393 -14.394197 1.066705 12.515349 2.112625 11.548711 -179.648100 75.577836 1.845394 -40.665350 -54.776032 -9.928368 -28.909997 12.698199 -1.061108 9.156576 4.792541 -23.398883 
302.206084 0.000000 371.453869 0.000000 -84.573344 0.000000 0.062824 89.386617 0.008074 95.434997 1.241362 179.780112 154.439668 -6.063028 172.712006 -83.807531 1.743070 -6.418872 75.148962 3.662384 -2.941477 21.454552 0.003107 0.000017 169.016166 -2.471398 -176.015268 -30.901123 3.010329 5.155877 80.334030 -4.341152 -2.821843 21.454553 -0.003083 0.000000 8.874047 0.937301 0.054613 7.737671 1.868887 0.171721 7.419391 1.869751 0.160422 16.906137 0.062420 2.257888 -4.560372 -1.365421 2.694024 -167.766473 -71.725740 -13.963851 -10.279977 60.763443 24.385830 -20.654865 -14.300987 1.061863 14.278780 4.823042 15.464586 178.588512 75.829032 0.047654 -45.346015 -53.712399 -6.354742 -29.777694 12.912673 -1.091790 9.183989 4.766110 -22.207101 
302.390244 0.000000 373.106666 0.000000 -85.101594 0.000000 0.104856 89.612061 0.026584 95.425214 1.301841 179.505433 152.324255 -6.847397 172.970484 -82.295917 1.695544 -6.726153 74.847056 3.724226 -3.484961 21.454557 0.003115 0.000015 170.736288 -2.683299 -176.745229 -29.654461 3.098816 5.034056 80.765886 -4.237151 -2.804080 21.454553 -0.003076 0.000000 8.812202 0.921255 0.165714 7.615668 1.829658 0.391660 7.297405 1.831852 0.380593 17.120487 0.012640 2.383268 -4.892828 -1.377432 2.832909 -167.141394 -71.550661 -14.607590 -5.509881 60.438143 28.883756 -21.733913 -14.566435 1.092636 15.275455 7.215469 19.925134 177.263189 76.129154 -1.299992 -49.593193 -52.505541 -3.701508 -30.844457 13.297518 -1.136636 8.882737 4.682026 -21.161775 
